<?xml version="1.0" encoding="UTF-8"?>
<svg width="256" height="256" viewBox="0 0 256 256" xmlns="http://www.w3.org/2000/svg" role="img" aria-label="Plataforma Solar">
  <defs>
    <linearGradient id="sun" x1="0" y1="0" x2="1" y2="1">
      <stop offset="0%" stop-color="#f59e0b"/>
      <stop offset="100%" stop-color="#ef4444"/>
    </linearGradient>
    <linearGradient id="ray" x1="0" y1="0" x2="0" y2="1">
      <stop offset="0%" stop-color="#f59e0b"/>
      <stop offset="100%" stop-color="#a855f7"/>
    </linearGradient>
  </defs>
  <rect width="256" height="256" fill="none"/>
  <!-- Rays -->
  <g transform="translate(128 128)">
    <g fill="url(#ray)" opacity="0.9">
      <path d="M0,-100 L12,-72 L-12,-72 Z"/>
      <path d="M70,-70 L78,-40 L50,-50 Z"/>
      <path d="M100,0 L72,12 L72,-12 Z"/>
      <path d="M70,70 L50,50 L78,40 Z"/>
      <path d="M0,100 L12,72 L-12,72 Z"/>
      <path d="M-70,70 L-78,40 L-50,50 Z"/>
      <path d="M-100,0 L-72,12 L-72,-12 Z"/>
      <path d="M-70,-70 L-50,-50 L-78,-40 Z"/>
    </g>
  </g>
  <!-- Core circle -->
  <circle cx="128" cy="128" r="56" fill="url(#sun)"/>
  <!-- Inner ring -->
  <circle cx="128" cy="128" r="42" fill="none" stroke="#ffffff" stroke-width="6" opacity="0.9"/>
  <!-- People (abstract) -->
  <g fill="#ffffff" opacity="0.95">
    <circle cx="112" cy="120" r="6"/>
    <rect x="108" y="128" width="8" height="16" rx="3"/>
    <circle cx="144" cy="120" r="6"/>
    <rect x="140" y="128" width="8" height="16" rx="3"/>
    <circle cx="128" cy="136" r="6"/>
  </g>
</svg>
